# xmcd CD database file
#
# Track frame offsets:
#	150
#	18927
#	41857
#	60643
#
# Disc length: 1111 seconds
#
# Revision: 0
# Processed by: cddbd v1.5.1PL2 Copyright (c) Steve Scherf et al.
# Submitted via: CD2WAV32(JP) R3.22
#
DISCID=2d045504
DTITLE=松任谷由実 - 虹の下のどしゃ降りで
DYEAR=2006
DGENRE=JPop
TTITLE0=虹の下のどしゃ降りで
TTITLE1=Smile again
TTITLE2=虹の下のどしゃ降りで (instrumental)
TTITLE3=Smile again (instrumental)
EXTD=
EXTT0=
EXTT1=
EXTT2=
EXTT3=
PLAYORDER=
